<svg xmlns="http://www.w3.org/2000/svg" aria-hidden="true" data-bbox="1 0.5 461.466 82.341" data-type="color" viewBox="1 0.5 461.466 82.341"><path fill="#ff2d36" d="M456.3 77.9c7.6-8 8.3-22.1 1.4-28.6-6.5-6.1-19.2-6.4-25.1-.6-7 7-5.4 21.7 3.1 29.7 6.5 6.1 14.6 5.9 20.6-.5z" data-color="1"/><path fill="#232d3a" d="M34.8 82.5c-11.4 0-19.9-1.7-25.5-5.1C3.8 74 1 70 1 65.6c0-1.5.3-2.8 1-4 .7-1.2 1.4-2.2 2.2-3 .8-.8 1.6-1.4 2.3-1.8.7-.4 1.2-.6 1.3-.5 2.8 2.9 6.3 5.3 10.6 7.3s9.3 3 15.1 3c4.5 0 7.9-.6 10.2-1.9 2.3-1.3 3.5-3.1 3.5-5.6 0-1.5-.4-2.7-1.1-3.6-.7-.9-1.8-1.7-3.3-2.3-1.4-.6-3.2-1.2-5.3-1.7-2.1-.5-4.4-1-7.1-1.5-2.7-.6-5.6-1.4-8.8-2.2-3.2-.9-6.2-2.1-8.9-3.8-2.8-1.7-5.1-3.9-6.9-6.7C4 34.5 3 30.9 3 26.4c0-3.8.8-7.3 2.3-10.4 1.5-3.1 3.7-5.7 6.5-7.9C14.7 6 18.2 4.3 22.2 3c4-1.2 8.5-1.8 13.4-1.8 10.5 0 18.4 1.7 23.6 5 5.2 3.3 7.8 7.2 7.8 11.7 0 1.5-.3 2.8-1 4.1-.7 1.2-1.5 2.3-2.4 3.1-.9.9-1.7 1.5-2.5 1.9-.7.4-1.2.6-1.3.5-2.7-3.1-6-5.6-10-7.5-4-1.9-8.3-2.9-12.9-2.9-4.3 0-7.5.7-9.8 2-2.3 1.3-3.4 3.2-3.4 5.7 0 1.4.4 2.5 1.1 3.4.7.9 1.8 1.7 3.3 2.2 1.4.6 3.2 1.1 5.2 1.6s4.4 1 7 1.5c2.8.6 5.8 1.4 9.2 2.2 3.4.9 6.5 2.2 9.3 3.9 2.9 1.8 5.3 4 7.3 6.8s3 6.4 3 10.9c0 7.9-3 14.1-9.1 18.5-6 4.5-14.4 6.7-25.2 6.7zM115 18c-5.4 0-9.6 1.2-12.6 3.7s-5.2 5.2-6.7 8.3c0 .1-.7.1-2.2.1-1.5-.1-3.2-.3-5-.9-1.9-.5-3.5-1.5-5-2.9s-2.2-3.4-2.2-5.9c0-2.4.7-4.8 2.2-7.1C84.9 11 87.1 9 90 7.2c2.9-1.8 6.6-3.3 11-4.4 4.4-1.1 9.6-1.7 15.6-1.7 12.3 0 21.6 2.7 27.6 8.1 6.1 5.4 9.1 13.4 9.1 24v46.2c0 .5-.9 1.1-2.6 1.7s-3.7.9-5.8.9c-3.5 0-6.4-1-8.8-3-2.3-2-3.8-5.1-4.5-9.5-2.8 4-6.5 7.2-11.2 9.6-4.7 2.3-10 3.5-15.8 3.5-8.2 0-14.6-2.1-19.2-6.2-4.6-4.2-6.9-9.6-6.9-16.3 0-9 4.1-15.7 12.2-19.9 8.1-4.2 20.8-6.4 37.9-6.6h2.6C131 23.1 125.6 18 115 18zm-3 49.8c5.6 0 10.2-1.6 13.7-5 3.5-3.3 5.3-7.5 5.3-12.6v-4.5l-4.2.2c-8.9.2-15.7 1.3-20.2 3.2-4.5 1.9-6.8 5-6.8 9.3 0 2.9 1.1 5.2 3.3 6.9 2.2 1.6 5.1 2.5 8.9 2.5zM218.4 69.1c-2.8 4-6.2 7.3-10.4 9.9-4.2 2.6-9.3 3.8-15.3 3.8-5.1 0-9.5-.8-13.2-2.5-3.7-1.6-6.7-3.9-8.9-6.9-2.3-2.9-4-6.4-5.1-10.3-1.1-3.9-1.7-8.1-1.7-12.6V12.9c0-4 .9-6.9 2.8-8.5 1.9-1.6 4.2-2.4 7.1-2.4h2.4c3 0 5.4.8 7.3 2.3 1.9 1.5 2.9 4.4 2.9 8.5v34.3c0 5.2 1.2 9.3 3.8 12.3 2.5 3 6.1 4.5 10.9 4.5 3.7 0 7.1-.9 10-2.8 2.9-1.9 5.2-4.3 6.8-7.4V12.9c0-4 .9-6.9 2.8-8.5 1.9-1.6 4.3-2.4 7.3-2.4h2.2c3.1 0 5.6.8 7.4 2.3 1.9 1.5 2.8 4.4 2.8 8.5v66c0 .4-.8 1-2.5 1.6-1.7.6-3.6 1-6 1-1.4 0-2.8-.2-4.2-.6-1.4-.4-2.8-1-4-1.9-1.2-.9-2.3-2.2-3.2-3.8-.9-1.6-1.6-3.6-2-6zM290.9 82.8c-6.1 0-11.6-1-16.6-3-5-2-9.3-4.8-12.9-8.5-3.6-3.6-6.4-7.9-8.5-12.9-2-5-3-10.5-3-16.4 0-6 1-11.4 3-16.4 2-5 4.9-9.3 8.5-12.9 3.7-3.6 8-6.4 13-8.4s10.5-3 16.4-3c6 0 11 .7 15.3 2.2 4.2 1.5 7.6 3.3 10.3 5.5 2.7 2.2 4.6 4.5 5.8 6.9 1.2 2.5 1.8 4.6 1.8 6.4 0 2.2-.6 4-1.9 5.4-1.3 1.4-2.7 2.5-4.2 3.2-1.5.7-2.9 1.2-4.2 1.4-1.3.2-2 .1-2.2-.1-1.5-3.7-3.8-6.8-6.9-9.3-3.1-2.4-7.4-3.7-12.9-3.7-3.1 0-5.9.6-8.5 1.7-2.6 1.1-4.8 2.7-6.7 4.7-1.9 2-3.3 4.4-4.4 7.2-1.1 2.8-1.6 5.8-1.6 9.1s.5 6.4 1.6 9.2c1.1 2.8 2.5 5.2 4.4 7.3 1.9 2 4.1 3.6 6.7 4.7 2.6 1.1 5.5 1.7 8.5 1.7 5.4 0 9.7-1.2 12.9-3.7 3.1-2.4 5.5-5.5 6.9-9.3.1-.2.8-.3 2.1-.2 1.3.1 2.7.5 4.2 1.3 1.5.7 3 1.8 4.2 3.2 1.3 1.4 1.9 3.3 1.9 5.7 0 1.8-.6 3.9-1.9 6.3-1.3 2.4-3.3 4.7-6 6.9s-6.1 4-10.3 5.5c-4 1.6-9 2.3-14.8 2.3zM358.4 61.5c4 3.2 9.1 4.9 15.2 4.9 6 0 10.7-1.1 14.1-3.4 3.5-2.3 6.1-5 7.9-8.1 0-.1.6-.1 1.8.2 1.2.2 2.4.7 3.8 1.4 1.3.7 2.6 1.8 3.7 3.2 1.1 1.4 1.7 3.2 1.7 5.4 0 2-.7 4.1-2.2 6.2-1.5 2.1-3.6 4-6.5 5.7-2.8 1.7-6.3 3.1-10.5 4.2s-9 1.6-14.5 1.6c-6.4 0-12.2-1-17.3-2.9-5.2-1.9-9.6-4.6-13.3-8.1-3.7-3.5-6.5-7.7-8.5-12.7-2-5-3-10.5-3-16.7 0-6 1-11.5 3-16.5 2-5.1 4.8-9.4 8.5-13.1 3.6-3.7 7.9-6.5 12.9-8.6 5-2.1 10.4-3.1 16.3-3.1 5.7 0 11 1 15.7 2.9 4.7 1.9 8.8 4.6 12.3 8.1s6.1 7.6 8 12.3c1.9 4.7 2.8 10 2.8 15.7v1.6c-.1 2-.5 3.6-1.2 4.6-.7 1.1-2.1 1.6-4.2 1.6H351c.9 5.8 3.3 10.3 7.4 13.6zm30.8-26.8c-.2-5.4-1.9-9.8-5.2-13.1-3.2-3.3-7.6-5-13-5-5.3 0-9.8 1.7-13.4 5-3.6 3.4-5.8 7.7-6.5 13h38.1zM418.1 9.5c.4-.5.6-1.1.6-1.7 0-.8-.3-1.5-.8-2.1-.5-.5-1.3-.8-2.3-.8h-1.4c-1 0-1.9.9-1.9 2v4.9c0 1.1.8 2 1.9 2h.3v-3.2h.2l1.3 2.2c.3.6.9 1 1.6 1h1.4l-2-3.4c.4-.3.8-.5 1.1-.9zm-1.6-1.7c0 .6-.3.9-1 .9h-.8c-.1 0-.2-.1-.2-.2V6.9h1c.4 0 .6.1.8.2.1.2.2.4.2.7z" data-color="2"/><path fill="#232d3a" d="M415.5.5c-4.9 0-8.8 3.9-8.8 8.8s3.9 8.8 8.8 8.8 8.8-3.9 8.8-8.8-3.9-8.8-8.8-8.8zm6.7 8.8c0 3.7-3 6.7-6.6 6.7a6.7 6.7 0 0 1 0-13.4c3.6 0 6.6 3 6.6 6.7z" data-color="2"/></svg>