<svg width="635" height="118" viewBox="0 0 635 118" fill="none" xmlns="http://www.w3.org/2000/svg">
<path fill-rule="evenodd" clip-rule="evenodd" d="M570 25C574.971 25 579 20.9706 579 16C579 11.0294 574.971 7 570 7C565.029 7 561 11.0294 561 16C561 20.9706 565.029 25 570 25ZM570 28C576.627 28 582 22.6274 582 16C582 9.37258 576.627 4 570 4C563.373 4 558 9.37258 558 16C558 22.6274 563.373 28 570 28Z" fill="#232D3A"/>
<path d="M573.552 15.8163C574.101 15.1297 574.376 14.3058 574.376 13.482C574.376 12.3835 573.964 11.4223 573.277 10.5985C572.591 9.91193 571.492 9.5 570.119 9.5H568.197C566.824 9.5 565.588 10.7358 565.588 12.2462V18.9744C565.588 20.4848 566.687 21.7206 568.197 21.7206H568.609V17.3267H568.884L570.669 20.3475C571.081 21.1713 571.904 21.7206 572.866 21.7206H574.788L572.042 17.052C572.191 16.9402 572.34 16.8384 572.486 16.7385C572.879 16.4707 573.252 16.2163 573.552 15.8163ZM571.355 13.482C571.355 14.3058 570.943 14.7178 569.982 14.7178H568.884C568.746 14.7178 568.609 14.5805 568.609 14.4432V12.2462H569.982C570.531 12.2462 570.806 12.3835 571.081 12.5208C571.218 12.7954 571.355 13.0701 571.355 13.482Z" fill="#232D3A"/>
<path fill-rule="evenodd" clip-rule="evenodd" d="M573.552 15.8163C574.101 15.1297 574.376 14.3058 574.376 13.482C574.376 12.3835 573.964 11.4223 573.277 10.5985C572.591 9.91193 571.492 9.5 570.119 9.5H568.197C566.824 9.5 565.588 10.7358 565.588 12.2462V18.9744C565.588 20.4848 566.687 21.7206 568.197 21.7206H568.609V17.3267H568.884L570.669 20.3475C571.081 21.1713 571.904 21.7206 572.866 21.7206H574.788L572.042 17.052C572.191 16.9402 572.34 16.8384 572.486 16.7385C572.879 16.4707 573.252 16.2163 573.552 15.8163ZM569.982 14.7178C570.943 14.7178 571.355 14.3058 571.355 13.482C571.355 13.0701 571.218 12.7954 571.081 12.5208C570.806 12.3835 570.531 12.2462 569.982 12.2462H568.609V14.4432C568.609 14.5805 568.746 14.7178 568.884 14.7178H569.982Z" fill="#232D3A"/>
<path d="M626.721 108.29C636.925 97.4564 637.865 78.2265 628.601 69.5595C619.874 61.1634 602.823 60.7571 594.901 68.747C585.503 78.2265 587.651 98.1335 599.063 109.103C607.656 117.228 618.531 116.957 626.721 108.29Z" fill="#FF2D38"/>
<path d="M50.0833 115C34.25 115 22.4444 112.661 14.6667 107.984C6.88889 103.169 3 97.8032 3 91.6124C3 89.6864 3.41667 87.7603 4.38889 86.1095C5.22222 84.5961 6.33333 83.2204 7.44444 81.9822C8.41667 81.0192 9.52778 80.1938 10.7778 79.5059C11.75 78.9556 12.4444 78.6805 12.5833 78.818C22.0278 88.3106 34.9444 93.5384 48.2778 93.1257C54.5278 93.1257 59.25 92.3003 62.4444 90.5118C65.5 89.1361 67.4444 86.1095 67.3055 82.8077C67.4444 81.0192 66.8889 79.2308 65.7778 77.855C64.5278 76.4793 63 75.3787 61.1944 74.6908C58.8333 73.7278 56.3333 72.9023 53.8333 72.3521C50.9167 71.6642 47.5833 70.9763 43.9722 70.2884C40.2222 69.3254 36.1944 68.3624 31.75 67.2618C27.3056 66.1612 23.1389 64.3728 19.25 62.034C15.3611 59.6952 12.1667 56.531 9.66667 52.8165C7.16667 48.8269 5.91667 43.8742 5.91667 37.6834C5.77778 32.7307 6.88889 27.9156 9.11111 23.3757C11.3333 19.1109 14.3889 15.3964 18.2778 12.5073C22.5833 9.34315 27.4444 6.86681 32.5833 5.49107C38.6944 3.70261 44.9444 2.87717 51.1944 3.01474C65.9167 3.01474 76.8889 5.3535 84.1111 9.89344C91.3333 14.4334 94.9444 19.7988 94.9444 25.9896C94.9444 27.9156 94.5278 29.8417 93.5555 31.6301C92.5833 33.1435 91.4722 34.6568 90.2222 35.8949C89.1111 36.858 88 37.821 86.75 38.5088C85.6389 39.0591 85.0833 39.3343 84.9444 39.1967C81.0556 34.7943 76.3333 31.355 71.0555 28.8787C65.5 26.1272 59.3889 24.7514 53.1389 24.7514C47.1667 24.7514 42.7222 25.7145 39.5278 27.5029C36.6111 29.0162 34.6667 32.0429 34.8056 35.3446C34.8056 36.9955 35.3611 38.784 36.3333 40.0222C37.5833 41.3979 39.1111 42.4985 40.9167 43.0488C43.2778 44.0118 45.6389 44.6997 48.1389 45.25C50.9167 45.9378 54.25 46.6257 57.8611 47.3136C61.4722 48.0014 65.9167 49.2396 70.6389 50.3402C75.2222 51.4408 79.5278 53.3668 83.6944 55.7056C87.7222 58.0444 91.0556 61.3461 93.8333 65.0606C96.6111 68.9127 98 73.8654 98 80.0562C98 90.9245 93.8333 99.4541 85.3611 105.507C76.8889 111.561 65.0833 115 50.0833 115Z" fill="#232D3A"/>
<path fill-rule="evenodd" clip-rule="evenodd" d="M13.104 110.545L13.0875 110.534C4.90955 105.472 0 99.3057 0 91.6124C0 89.2852 0.498826 86.8219 1.78138 84.6254C2.77359 82.8339 4.04972 81.2734 5.21166 79.9786L5.27057 79.9129L5.33324 79.8508C6.50716 78.688 7.83897 77.7006 9.31595 76.8861C9.85288 76.5828 10.4091 76.2993 10.9147 76.1045C11.1529 76.0128 11.5174 75.8861 11.9322 75.8236C12.1379 75.7926 12.4867 75.7563 12.9031 75.812C13.3056 75.8657 14.0461 76.0443 14.6945 76.6866L14.7023 76.6944L14.71 76.7021C23.5799 85.6172 35.6975 90.5137 48.185 90.1272L48.2314 90.1257H48.2778C54.3693 90.1257 58.4638 89.3022 60.9789 87.8942L61.0933 87.8301L61.2128 87.7763C63.2052 86.8793 64.3931 84.9514 64.3082 82.9338L64.3007 82.7544L64.3146 82.5754C64.3924 81.5731 64.0875 80.5709 63.4936 79.8029C62.5439 78.7767 61.4222 77.9879 60.1264 77.4943L60.0938 77.4818L60.0615 77.4686C57.8251 76.5565 55.4899 75.7885 53.1884 75.2819L53.1665 75.2771L53.1447 75.2719C50.2854 74.5976 46.9981 73.9188 43.4109 73.2355L43.3178 73.2177L43.226 73.1942C40.7782 72.5655 38.2237 71.94 35.493 71.2713C34.057 70.9196 32.5724 70.5561 31.0289 70.1739C26.2695 68.9953 21.8267 67.0843 17.7039 64.6049C13.4056 62.0199 9.90005 58.5362 7.17786 54.4916L7.15052 54.451L7.12453 54.4095C4.25702 49.8334 2.9223 44.3023 2.91668 37.7251C2.77082 32.2701 4.00163 26.9905 6.41659 22.0568L6.43318 22.0229L6.45062 21.9894C8.86586 17.3542 12.2082 13.2791 16.4887 10.0992L16.495 10.0945L16.5012 10.09C21.057 6.74181 26.2406 4.08859 31.7737 2.60218C38.1558 0.738023 44.6896 -0.125759 51.2272 0.0147439C66.1535 0.0181888 77.787 2.37457 85.7077 7.35357C93.438 12.2129 97.9444 18.3991 97.9444 25.9896C97.9444 28.3536 97.4307 30.7829 96.1913 33.0629L96.1389 33.1594L96.0796 33.2517C95.0492 34.8555 93.8024 36.5712 92.3334 38.0263L92.2625 38.0966L92.0945 38.2422C91.0448 39.1524 89.7279 40.2944 88.1964 41.1372L88.1395 41.1684L87.9987 41.2382C87.5169 41.4769 87.0145 41.7259 86.6156 41.8886C86.4204 41.9682 86.0545 42.1107 85.6292 42.1827L85.6273 42.183C85.3887 42.2233 83.9779 42.4619 82.8332 41.3281L82.7622 41.2578L82.6961 41.1828C79.0957 37.1071 74.712 33.9081 69.7812 31.5946L69.7525 31.5811L69.7241 31.567C64.5999 29.0292 58.9468 27.7514 53.1389 27.7514C47.4421 27.7514 43.5703 28.6778 40.9933 30.1206L40.9517 30.1439L40.9094 30.1658C38.9195 31.1983 37.7179 33.1982 37.8029 35.2186L37.8056 35.2816V35.3446C37.8056 36.375 38.1604 37.4431 38.6358 38.094C39.5877 39.117 40.6465 39.8302 41.7913 40.1791L41.9226 40.2191L42.0496 40.271C44.2205 41.1563 46.4127 41.7982 48.7838 42.3201L48.822 42.3285L48.86 42.3379C51.559 43.0063 54.83 43.6822 58.4225 44.3666C60.743 44.8086 63.4763 45.49 66.3137 46.1975C67.9674 46.6097 69.6565 47.0308 71.3198 47.4185L71.3296 47.4208L71.3394 47.4231C76.2775 48.6089 80.8473 50.6672 85.1628 53.0895L85.1819 53.1002L85.2009 53.1112C89.6665 55.7042 93.286 59.3194 96.2358 63.264L96.2514 63.2848L96.2666 63.3059C99.5067 67.7991 101 73.4176 101 80.0562C101 91.8205 96.4229 101.291 87.1051 107.948C77.9895 114.461 65.5202 118 50.0833 118C34.0591 118 21.5961 115.652 13.1205 110.555L13.104 110.545ZM36.3333 40.0222C35.3611 38.784 34.8056 36.9955 34.8056 35.3446C34.6667 32.0429 36.6111 29.0162 39.5278 27.5029C42.7222 25.7145 47.1667 24.7514 53.1389 24.7514C59.3889 24.7514 65.5 26.1272 71.0555 28.8787C76.3333 31.355 81.0555 34.7943 84.9444 39.1967C85.0833 39.3343 85.6389 39.0591 86.75 38.5088C88 37.821 89.1111 36.858 90.2222 35.8949C91.4722 34.6568 92.5833 33.1435 93.5555 31.6301C94.5278 29.8417 94.9444 27.9156 94.9444 25.9896C94.9444 19.7988 91.3333 14.4334 84.1111 9.89344C76.8889 5.3535 65.9167 3.01474 51.1944 3.01474C44.9444 2.87717 38.6944 3.70261 32.5833 5.49107C27.4444 6.86681 22.5833 9.34315 18.2778 12.5073C14.3889 15.3964 11.3333 19.1109 9.11111 23.3757C6.88889 27.9156 5.77778 32.7307 5.91667 37.6834C5.91667 43.8742 7.16667 48.8269 9.66667 52.8165C12.1667 56.531 15.3611 59.6952 19.25 62.034C23.1389 64.3728 27.3056 66.1612 31.75 67.2618C33.275 67.6395 34.7509 68.0009 36.1834 68.3517C38.9258 69.0233 41.5089 69.6559 43.9722 70.2884C47.5833 70.9763 50.9167 71.6642 53.8333 72.3521C56.3333 72.9023 58.8333 73.7278 61.1944 74.6908C63 75.3787 64.5278 76.4793 65.7778 77.855C66.8889 79.2308 67.4444 81.0192 67.3055 82.8077C67.4444 86.1095 65.5 89.1361 62.4444 90.5118C59.25 92.3003 54.5278 93.1257 48.2778 93.1257C34.9444 93.5384 22.0278 88.3106 12.5833 78.818C12.4444 78.6805 11.75 78.9556 10.7778 79.5059C9.52778 80.1938 8.41667 81.0192 7.44444 81.9822C6.33333 83.2204 5.22222 84.5961 4.38889 86.1095C3.41667 87.7603 3 89.6864 3 91.6124C3 97.8032 6.88889 103.169 14.6667 107.984C22.4444 112.661 34.25 115 50.0833 115C65.0833 115 76.8889 111.561 85.3611 105.507C93.8333 99.4541 98 90.9245 98 80.0562C98 73.8654 96.6111 68.9127 93.8333 65.0606C91.0556 61.3461 87.7222 58.0444 83.6944 55.7056C79.5278 53.3668 75.2222 51.4408 70.6389 50.3402C68.86 49.9256 67.1205 49.4915 65.4501 49.0746C62.6864 48.3848 60.1119 47.7423 57.8611 47.3136C54.25 46.6257 50.9167 45.9378 48.1389 45.25C45.6389 44.6997 43.2778 44.0118 40.9167 43.0488C39.1111 42.4985 37.5833 41.3979 36.3333 40.0222Z" fill="#FCFCFC"/>
<path d="M159.752 26.3434C152.264 26.3434 146.301 27.9901 142.28 31.4208C138.397 34.4398 135.208 38.4193 132.989 42.8106C132.989 42.9478 131.88 42.9478 129.939 42.9478C127.581 42.8106 125.224 42.3989 123.005 41.7128C120.371 40.8894 118.013 39.6544 116.072 37.7332C113.853 35.5376 112.744 32.6558 113.021 29.6368C113.021 26.2061 114.131 22.7755 116.072 19.8937C118.429 16.463 121.48 13.444 125.085 11.3856C129.8 8.64107 134.931 6.58266 140.339 5.34761C147.411 3.70089 154.76 2.87753 161.971 3.01475C179.165 3.01475 191.923 6.71988 200.381 14.2674C208.84 21.8149 213 32.6558 213 47.2019V110.601C213 111.287 211.752 112.11 209.395 112.934C206.76 113.757 203.987 114.169 201.352 114.169C196.915 114.306 192.616 112.796 189.149 110.052C185.96 107.307 183.88 102.916 182.909 97.0153C179.027 102.642 173.619 107.17 167.379 110.189C160.584 113.483 152.957 115.129 145.469 114.992C134.099 114.992 125.224 112.11 118.707 106.484C112.189 100.858 109 93.3102 109 84.116C109 71.6283 114.685 62.5713 125.917 56.8078C137.149 51.0442 154.76 48.0252 178.611 47.7508H182.216C181.939 33.4792 174.451 26.3434 159.752 26.3434ZM155.592 94.8197C163.496 94.8197 169.736 92.4868 174.728 87.9583C179.581 83.4298 182.216 77.1174 182.077 70.6677V64.4925L176.253 64.767C163.773 65.0414 154.483 66.5509 148.243 69.1582C142.003 71.7655 138.813 76.0196 138.813 81.9203C138.675 85.6255 140.339 89.1934 143.389 91.389C146.301 93.5846 150.323 94.8197 155.592 94.8197Z" fill="#232D3A"/>
<path fill-rule="evenodd" clip-rule="evenodd" d="M144.175 33.7473L144.121 33.7891C140.645 36.4926 137.754 40.0738 135.725 44.0484C135.509 44.5271 135.199 44.8758 134.954 45.0907C134.566 45.4304 134.184 45.5909 134.015 45.6557C133.659 45.793 133.338 45.8414 133.212 45.8595C132.904 45.9038 132.564 45.92 132.291 45.9291C131.721 45.9479 130.919 45.9479 129.998 45.9478H129.851L129.764 45.9428C127.18 45.7923 124.583 45.3408 122.119 44.5789L122.11 44.5762C119.144 43.649 116.327 42.2058 113.962 39.8656C111.179 37.112 109.704 33.4178 110.022 29.5023C110.05 25.4817 111.356 21.5245 113.584 18.2176L113.592 18.2061L113.599 18.1947C116.165 14.4615 119.529 11.1057 123.587 8.78668C128.551 5.89833 133.959 3.7281 139.665 2.42433C146.953 0.727811 154.537 -0.124705 161.999 0.014757C179.539 0.0188334 193.147 3.79185 202.379 12.0289C211.644 20.2965 216 32.0572 216 47.2019V110.601C216 111.711 215.496 112.546 215.083 113.048C214.664 113.555 214.163 113.941 213.717 114.231C212.82 114.814 211.662 115.32 210.384 115.766L210.337 115.782L210.29 115.797C207.379 116.707 204.321 117.164 201.398 117.169C196.231 117.317 191.266 115.554 187.287 112.404L187.239 112.366L187.192 112.326C184.618 110.111 182.746 107.123 181.472 103.549C177.844 107.401 173.489 110.565 168.687 112.889C161.471 116.387 153.387 118.133 145.442 117.992C133.576 117.987 123.944 114.969 116.746 108.755C109.496 102.496 106 94.0817 106 84.116C106 77.403 107.534 71.4492 110.699 66.3567C113.861 61.2685 118.54 57.2215 124.548 54.1387C136.418 48.0478 154.605 45.0268 178.576 44.751L178.593 44.7508H179.025C178.476 39.7607 176.814 36.2413 174.322 33.867C171.334 31.0192 166.656 29.3434 159.752 29.3434C152.632 29.3434 147.49 30.919 144.227 33.7031L144.175 33.7473ZM182.041 44.7508C180.812 32.4792 173.382 26.3434 159.752 26.3434C152.264 26.3434 146.301 27.9901 142.28 31.4208C138.397 34.4398 135.208 38.4193 132.989 42.8106C132.989 42.9478 131.88 42.9478 129.939 42.9478C127.581 42.8106 125.224 42.3989 123.005 41.7128C120.371 40.8894 118.013 39.6544 116.072 37.7332C113.853 35.5376 112.744 32.6558 113.021 29.6368C113.021 26.2061 114.131 22.7755 116.072 19.8937C118.429 16.463 121.48 13.444 125.085 11.3856C129.8 8.64107 134.931 6.58266 140.339 5.34761C147.411 3.70089 154.76 2.87753 161.971 3.01475C179.165 3.01475 191.923 6.71988 200.381 14.2674C208.84 21.8149 213 32.6558 213 47.2019V110.601C213 111.287 211.752 112.11 209.395 112.934C206.76 113.757 203.987 114.169 201.352 114.169C196.915 114.306 192.616 112.796 189.149 110.052C186.703 107.947 184.91 104.873 183.769 100.893C183.422 99.6836 183.136 98.3905 182.909 97.0153C182.155 98.108 181.344 99.1592 180.48 100.166C176.895 104.344 172.407 107.756 167.379 110.189C160.584 113.483 152.957 115.129 145.469 114.992C134.099 114.992 125.224 112.11 118.707 106.484C112.189 100.858 109 93.3102 109 84.116C109 71.6283 114.685 62.5713 125.917 56.8078C137.149 51.0442 154.76 48.0252 178.611 47.7508H182.216C182.196 46.7131 182.138 45.7131 182.041 44.7508ZM179.077 70.7V67.6372L176.357 67.7654L176.319 67.7662C163.973 68.0377 155.125 69.5339 149.399 71.9263C146.638 73.08 144.774 74.5053 143.598 76.0912C142.444 77.6476 141.813 79.5432 141.813 81.9203V81.9765L141.811 82.0325C141.709 84.7718 142.937 87.3673 145.142 88.9541L145.169 88.9736L145.195 88.9936C147.452 90.6947 150.781 91.8197 155.592 91.8197C162.834 91.8197 168.323 89.711 172.697 85.7505C176.919 81.803 179.198 76.3171 179.078 70.7322L179.077 70.7ZM176.253 64.767C163.773 65.0414 154.483 66.5509 148.243 69.1582C142.003 71.7655 138.813 76.0196 138.813 81.9203C138.675 85.6255 140.339 89.1934 143.389 91.389C146.301 93.5846 150.323 94.8197 155.592 94.8197C163.496 94.8197 169.736 92.4868 174.728 87.9583C179.581 83.4298 182.216 77.1174 182.077 70.6677V64.4925L176.253 64.767Z" fill="#FCFCFC"/>
<path d="M301.169 96.0258C297.508 101.562 292.627 106.268 287.068 109.729C281.373 113.328 274.458 114.988 266.186 114.988C260.085 115.127 253.983 114.02 248.288 111.528C243.542 109.452 239.339 106.13 236.22 101.978C232.966 97.6867 230.661 92.8422 229.305 87.7209C227.814 82.0459 227 76.2326 227 70.2808V18.0987C227 12.5621 228.22 8.54812 230.797 6.33349C233.508 3.98046 237.034 2.87314 240.559 3.01156H243.814C247.339 2.87314 251 3.98046 253.847 6.19508C256.424 8.4097 257.78 12.2853 257.78 18.0987V65.5747C257.78 72.7722 259.542 78.4472 262.932 82.5996C266.322 86.752 271.203 88.8282 277.712 88.8282C282.458 88.9666 287.203 87.5825 291.271 84.9526C295.203 82.4612 298.322 78.8624 300.492 74.71V18.0987C300.492 12.5621 301.712 8.54812 304.288 6.33349C307.136 4.11887 310.525 2.87314 314.186 3.01156H317.169C320.831 2.87314 324.356 3.98046 327.203 6.19508C329.78 8.4097 331 12.2853 331 18.0987V109.452C331 110.006 329.915 110.836 327.61 111.667C325.034 112.635 322.186 113.051 319.475 113.051C317.576 113.051 315.542 112.774 313.78 112.22C311.881 111.667 309.983 110.836 308.356 109.59C306.593 108.206 305.102 106.407 304.017 104.331C302.525 101.839 301.576 99.0709 301.169 96.0258Z" fill="#232D3A"/>
<path fill-rule="evenodd" clip-rule="evenodd" d="M226.405 88.4887L226.404 88.4835C224.852 82.5787 224 76.509 224 70.2808V18.0987C224 12.3006 225.247 7.15206 228.836 4.06317C232.158 1.18311 236.42 -0.138769 240.615 0.0115497H243.757C247.94 -0.138264 252.276 1.17221 255.689 3.82699L255.747 3.87215L255.803 3.92009C259.357 6.97531 260.78 11.9359 260.78 18.0987V65.5747C260.78 72.2916 262.42 77.2289 265.256 80.7024C267.96 84.0149 271.903 85.8282 277.712 85.8282H277.756L277.799 85.8295C281.907 85.9493 286.059 84.7503 289.642 82.4333L289.654 82.4258L289.666 82.4185C292.904 80.3666 295.559 77.4224 297.492 73.9528V18.0987C297.492 12.2977 298.74 7.14687 302.333 4.05851L302.388 4.01056L302.446 3.9654C305.769 1.38111 309.817 -0.140873 314.241 0.0115497H317.115C321.439 -0.138607 325.639 1.17764 329.045 3.82699L329.103 3.87215L329.159 3.92009C332.752 7.00846 334 12.0208 334 18.0987V109.452C334 110.562 333.475 111.375 333.118 111.812C332.735 112.282 332.276 112.65 331.857 112.936C331.015 113.509 329.918 114.023 328.647 114.482C325.675 115.596 322.466 116.051 319.475 116.051C317.323 116.051 314.993 115.742 312.91 115.092C310.779 114.467 308.526 113.499 306.532 111.972L306.518 111.961L306.503 111.95C304.419 110.313 302.672 108.207 301.399 105.797C300.808 104.802 300.294 103.771 299.855 102.705C296.612 106.446 292.815 109.684 288.662 112.27C282.373 116.242 274.873 117.984 266.22 117.988C259.721 118.131 253.195 116.949 247.086 114.277C241.869 111.994 237.255 108.349 233.826 103.784C230.327 99.1701 227.856 93.9695 226.405 88.4887ZM236.22 101.978C239.339 106.13 243.542 109.452 248.288 111.528C253.983 114.02 260.085 115.127 266.186 114.988C274.458 114.988 281.373 113.328 287.068 109.729C291.48 106.982 295.465 103.451 298.752 99.343C299.607 98.275 300.414 97.1681 301.169 96.0258C301.353 97.4005 301.647 98.7188 302.052 99.9807C302.544 101.514 303.199 102.964 304.017 104.331C305.102 106.407 306.593 108.206 308.356 109.59C309.983 110.836 311.881 111.667 313.78 112.22C315.542 112.774 317.576 113.051 319.475 113.051C322.186 113.051 325.034 112.635 327.61 111.667C329.915 110.836 331 110.006 331 109.452V18.0987C331 12.2853 329.78 8.4097 327.203 6.19507C324.356 3.98045 320.831 2.87314 317.169 3.01155H314.186C310.525 2.87314 307.136 4.11886 304.288 6.33349C301.712 8.54811 300.492 12.5621 300.492 18.0987V74.71C298.322 78.8624 295.203 82.4612 291.271 84.9526C287.203 87.5825 282.458 88.9666 277.712 88.8282C271.203 88.8282 266.322 86.752 262.932 82.5996C259.542 78.4472 257.78 72.7722 257.78 65.5747V18.0987C257.78 12.2853 256.424 8.4097 253.847 6.19507C251 3.98045 247.339 2.87314 243.814 3.01155H240.559C237.034 2.87314 233.508 3.98045 230.797 6.33349C228.22 8.54811 227 12.5621 227 18.0987V70.2808C227 76.2326 227.814 82.0459 229.305 87.7209C230.661 92.8422 232.966 97.6867 236.22 101.978Z" fill="#FCFCFC"/>
<path d="M400.179 114.987C392.509 115.124 384.974 113.754 377.842 110.876C364.655 105.667 354.159 94.9771 349.046 81.5457C346.22 74.4188 344.875 66.7437 345.009 58.9315C344.875 51.2564 346.22 43.5813 349.046 36.3173C351.603 29.7387 355.505 23.7082 360.618 18.6372C365.597 13.7032 371.652 9.72854 378.111 7.12448C385.108 4.24632 392.643 2.87576 400.313 3.01282C407.31 2.87576 414.308 3.83515 420.901 6.02804C425.88 7.67271 430.589 10.2768 434.761 13.5661C437.99 16.1702 440.681 19.4595 442.565 23.16C444.045 25.9011 444.853 28.9163 444.987 31.9315C445.122 34.6727 444.18 37.2767 442.431 39.3325C440.816 41.1143 438.932 42.6219 436.779 43.7183C435.03 44.6777 433.011 45.363 431.128 45.6371C429.378 45.9112 428.436 45.7742 428.167 45.5C426.283 40.566 423.054 36.1803 418.883 32.7539C414.711 29.3275 408.925 27.6828 401.39 27.6828C397.488 27.6828 393.585 28.3681 389.952 30.0128C386.588 31.5204 383.493 33.7133 380.937 36.4544C378.38 39.3325 376.362 42.6219 375.016 46.3224C373.536 50.297 372.863 54.5457 372.863 58.7944C372.863 63.0432 373.536 67.4289 375.016 71.4035C376.362 75.104 378.38 78.5304 380.937 81.4086C383.493 84.1497 386.588 86.3426 389.952 87.8502C393.585 89.3578 397.488 90.1802 401.39 90.1802C408.656 90.1802 414.442 88.5355 418.748 85.1091C422.919 81.8198 426.149 77.434 428.167 72.3629C428.302 72.0888 429.244 71.9518 430.993 72.0888C433.011 72.3629 434.895 72.9112 436.645 73.8706C438.798 74.967 440.681 76.4746 442.296 78.2563C444.18 80.4492 444.987 83.3274 444.853 86.2056C444.718 89.2208 443.776 92.236 442.296 94.84C440.278 98.5405 437.452 101.693 434.223 104.297C430.051 107.586 425.342 110.19 420.363 111.835C413.904 114.165 407.041 115.124 400.179 114.987Z" fill="#232D3A"/>
<path fill-rule="evenodd" clip-rule="evenodd" d="M430.993 72.0888C433.011 72.3629 434.895 72.9112 436.645 73.8705C438.798 74.967 440.681 76.4746 442.296 78.2563C444.18 80.4492 444.987 83.3274 444.853 86.2055C444.718 89.2208 443.776 92.236 442.296 94.84C440.278 98.5405 437.452 101.693 434.223 104.297C430.051 107.586 425.342 110.19 420.363 111.835C413.904 114.165 407.041 115.124 400.179 114.987C392.509 115.124 384.974 113.754 377.842 110.876C364.655 105.667 354.159 94.9771 349.046 81.5457C346.22 74.4188 344.875 66.7436 345.009 58.9315C344.875 51.2564 346.22 43.5813 349.046 36.3173C351.603 29.7387 355.505 23.7082 360.618 18.6371C365.597 13.7031 371.652 9.72854 378.111 7.12448C385.108 4.24631 392.643 2.87576 400.313 3.01281C407.31 2.87576 414.308 3.83515 420.901 6.02804C425.88 7.6727 430.589 10.2768 434.761 13.5661C437.99 16.1701 440.681 19.4595 442.565 23.16C444.045 25.9011 444.853 28.9163 444.987 31.9315C445.122 34.6726 444.18 37.2767 442.431 39.3325C440.816 41.1143 438.932 42.6219 436.779 43.7183C435.03 44.6777 433.011 45.363 431.128 45.6371C429.378 45.9112 428.436 45.7742 428.167 45.5C426.283 40.566 423.054 36.1803 418.883 32.7539C414.711 29.3275 408.925 27.6828 401.39 27.6828C397.488 27.6828 393.585 28.3681 389.952 30.0128C386.588 31.5204 383.493 33.7133 380.937 36.4544C378.38 39.3325 376.362 42.6219 375.016 46.3224C373.536 50.297 372.863 54.5457 372.863 58.7944C372.863 63.0432 373.536 67.4289 375.016 71.4035C376.362 75.104 378.38 78.5304 380.937 81.4086C383.493 84.1497 386.588 86.3426 389.952 87.8502C393.585 89.3578 397.488 90.1802 401.39 90.1802C408.656 90.1802 414.442 88.5355 418.748 85.1091C422.919 81.8198 426.149 77.434 428.167 72.3629C428.302 72.0888 429.244 71.9518 430.993 72.0888ZM391.141 85.0954C394.421 86.451 397.92 87.1802 401.39 87.1802C408.222 87.1802 413.269 85.6349 416.88 82.7616L416.89 82.7534C420.632 79.8032 423.549 75.8539 425.38 71.2535L425.423 71.1454L425.474 71.0409C426.039 69.8913 427.072 69.4838 427.388 69.368C427.842 69.202 428.294 69.1282 428.649 69.0894C429.382 69.0094 430.263 69.0224 431.227 69.098L431.312 69.1046L431.397 69.1161C433.687 69.4271 435.924 70.0616 438.047 71.2179C440.546 72.4974 442.7 74.2347 444.519 76.2417L444.546 76.2712L444.572 76.3014C447.035 79.1684 448.012 82.8334 447.85 86.3393C447.692 89.8637 446.602 93.3284 444.917 96.2996C442.679 100.394 439.579 103.831 436.106 106.632L436.093 106.642L436.08 106.653C431.666 110.133 426.663 112.908 421.343 114.671C414.522 117.125 407.322 118.124 400.176 117.988C392.132 118.124 384.219 116.683 376.729 113.662C362.758 108.14 351.66 96.8268 346.25 82.6324C343.283 75.1427 341.875 67.0976 342.009 58.9319C341.874 50.8884 343.288 42.8444 346.25 35.2306M391.141 85.0954C388.163 83.7546 385.421 81.8106 383.155 79.3889C380.871 76.8105 379.053 73.7254 377.835 70.3783L377.832 70.3674L377.827 70.3566C376.49 66.7663 375.863 62.7426 375.863 58.7944C375.863 54.8578 376.487 50.969 377.827 47.3693L377.832 47.3585L377.835 47.3476C379.04 44.0348 380.847 41.0791 383.155 38.4741C385.43 36.0421 388.186 34.0918 391.179 32.7504L391.189 32.7458C394.368 31.3069 397.836 30.6828 401.39 30.6828C408.522 30.6828 413.532 32.2413 416.978 35.0721C420.769 38.186 423.677 42.1496 425.365 46.5701L425.588 47.155L426.027 47.6018C426.583 48.1689 427.222 48.4224 427.617 48.5436C428.052 48.6772 428.489 48.7392 428.882 48.7668C429.666 48.8218 430.574 48.7597 431.576 48.6034C433.811 48.2759 436.148 47.4797 438.181 46.3708C440.68 45.0913 442.835 43.354 444.654 41.3471L444.685 41.3124L444.716 41.2767C446.934 38.6692 448.156 35.3279 447.984 31.7914C447.829 28.3482 446.91 24.9043 445.222 21.767C443.144 17.6952 440.187 14.0874 436.644 11.2307L436.631 11.2205L436.618 11.2104C432.194 7.72174 427.179 4.9426 421.844 3.18011C414.917 0.876667 407.598 -0.124578 400.311 0.0123131C392.27 -0.124023 384.35 1.31591 376.979 4.34606C370.155 7.0989 363.767 11.2931 358.506 16.5063L358.506 16.5071C353.089 21.8793 348.956 28.2667 346.25 35.2297" fill="#FCFCFC"/>
<path d="M492.023 85.7266C497.629 90.2384 504.466 92.426 512.807 92.426C521.012 92.426 527.438 90.9221 532.088 87.7774C536.463 85.043 540.155 81.2147 542.89 76.7029C542.89 76.5662 543.71 76.7029 545.351 76.9763C547.129 77.3865 548.907 78.0701 550.547 78.8904C552.462 79.9842 554.239 81.4882 555.607 83.2656C557.248 85.4531 557.931 88.0509 557.795 90.6486C557.658 93.7932 556.564 96.6644 554.786 99.1254C552.462 102.407 549.453 105.004 545.898 107.055C541.386 109.653 536.463 111.567 531.404 112.798C524.977 114.302 518.277 115.122 511.577 114.985C503.509 115.122 495.441 113.755 487.921 111.02C481.22 108.559 474.93 104.731 469.734 99.809C464.675 94.887 460.71 89.0079 458.112 82.4452C455.24 75.1989 453.873 67.4057 454.009 59.6125C453.873 51.8194 455.24 44.1629 458.112 37.0533C463.308 23.5177 473.973 12.7166 487.374 7.24774C494.484 4.37656 502.142 3.00933 509.799 3.00933C517.183 2.87261 524.43 4.23984 531.404 6.97429C537.694 9.4353 543.437 13.2635 548.223 18.0488C553.009 22.8341 556.701 28.5765 559.162 34.8657C561.76 41.7019 563.127 48.9482 562.991 56.3312V58.5188C562.991 60.7063 562.444 62.8939 561.35 64.808C560.393 66.312 558.478 66.9956 555.607 66.9956H482.178C483.135 75.0622 486.417 81.3515 492.023 85.7266ZM534.275 49.0849C534.002 41.7019 531.677 35.6861 527.165 31.1742C522.653 26.6624 516.773 24.3381 509.389 24.3381C502.552 24.0646 495.988 26.5256 491.066 31.1742C486.006 35.8228 482.861 42.112 482.041 48.9482L534.275 49.0849Z" fill="#232D3A"/>
<path fill-rule="evenodd" clip-rule="evenodd" d="M493.886 83.3754L493.904 83.3894C498.89 87.402 505.029 89.426 512.807 89.426C520.7 89.426 526.448 87.9701 530.407 85.2925L530.452 85.2621L530.498 85.2333C534.369 82.8143 537.677 79.4279 540.167 75.4053C540.658 74.3624 541.658 73.9286 541.953 73.8271C542.433 73.6621 542.853 73.6528 542.981 73.6501C543.32 73.6431 543.661 73.6819 543.877 73.709C544.349 73.7679 545.013 73.8786 545.772 74.0051L545.936 74.0323L546.026 74.0531C548.077 74.5264 550.079 75.3022 551.889 76.2071L551.963 76.2443L552.036 76.2856C554.27 77.5624 556.358 79.3223 557.984 81.4363L557.996 81.4508L558.007 81.4654C560.105 84.2628 560.958 87.5637 560.791 90.7929C560.624 94.5634 559.309 97.9834 557.226 100.871C554.62 104.547 551.271 107.42 547.397 109.654L547.395 109.655C542.619 112.404 537.429 114.42 532.113 115.713L532.1 115.716L532.087 115.719C525.467 117.268 518.535 118.123 511.571 117.986C503.153 118.121 494.741 116.692 486.896 113.84L486.886 113.836C479.82 111.241 473.176 107.201 467.671 101.987L467.657 101.973L467.642 101.959C462.288 96.7498 458.081 90.5171 455.323 83.5505C452.307 75.9404 450.872 67.7714 451.009 59.6125C450.873 51.4603 452.305 43.4293 455.32 35.9539C460.82 21.6481 472.089 10.2454 486.24 4.47015L486.25 4.46595C493.738 1.44269 501.77 0.0126354 509.771 0.00934162C517.56 -0.1311 525.188 1.31444 532.499 4.18133C539.191 6.79993 545.279 10.8634 550.344 15.9274C555.434 21.0164 559.349 27.1126 561.956 33.7724L561.961 33.7862L561.966 33.8C564.687 40.9595 566.131 48.5759 565.991 56.3588V58.5188C565.991 61.199 565.322 63.9042 563.954 66.2966L563.919 66.3586L563.881 66.4188C562.069 69.2658 558.767 69.9956 555.607 69.9956H485.725C487.013 75.7376 489.759 80.1543 493.869 83.3615L493.886 83.3754ZM482.657 69.9956C482.46 69.0247 482.3 68.0246 482.178 66.9956H555.607C558.478 66.9956 560.393 66.312 561.35 64.808C562.444 62.8939 562.991 60.7063 562.991 58.5188V56.3312C563.127 48.9482 561.76 41.7019 559.162 34.8657C556.701 28.5765 553.009 22.8341 548.223 18.0488C543.437 13.2635 537.694 9.4353 531.404 6.9743C524.43 4.23984 517.183 2.87261 509.799 3.00934C502.142 3.00934 494.484 4.37656 487.374 7.24774C473.973 12.7167 463.308 23.5177 458.112 37.0533C455.24 44.1629 453.873 51.8194 454.009 59.6125C453.873 67.4057 455.24 75.1989 458.112 82.4452C460.71 89.0079 464.675 94.887 469.734 99.809C474.93 104.731 481.22 108.559 487.921 111.02C495.441 113.755 503.509 115.122 511.577 114.985C518.277 115.122 524.977 114.302 531.404 112.798C536.463 111.567 541.386 109.653 545.898 107.055C549.453 105.004 552.462 102.407 554.786 99.1254C556.564 96.6644 557.658 93.7932 557.795 90.6486C557.931 88.0509 557.248 85.4531 555.607 83.2656C554.239 81.4882 552.462 79.9842 550.547 78.8904C549.072 78.153 547.487 77.526 545.89 77.1089C545.881 77.1066 545.872 77.1043 545.863 77.1019C545.693 77.0576 545.522 77.0157 545.351 76.9763C544.614 76.8534 544.042 76.7581 543.636 76.7029C543.139 76.6352 542.89 76.6276 542.89 76.7029C540.155 81.2147 536.463 85.043 532.088 87.7774C527.438 90.9221 521.012 92.426 512.807 92.426C504.466 92.426 497.629 90.2384 492.023 85.7266C487.132 81.9096 484.01 76.6356 482.657 69.9956ZM509.329 27.3381L509.269 27.3357C503.235 27.0944 497.458 29.2638 493.125 33.3554L493.111 33.3695L493.095 33.3833C489.414 36.7658 486.858 41.1293 485.639 45.9576L531.017 46.0764C530.311 40.7782 528.302 36.5531 525.044 33.2957C521.163 29.4154 516.08 27.3381 509.389 27.3381H509.329ZM534.042 46.0843C534.16 47.0578 534.237 48.0581 534.275 49.0849L482.041 48.9482C482.162 47.9354 482.335 46.9347 482.557 45.9495C483.835 40.2846 486.756 35.1341 491.066 31.1742C495.988 26.5256 502.552 24.0646 509.389 24.3381C516.773 24.3381 522.653 26.6624 527.165 31.1742C531.05 35.0586 533.313 40.0577 534.042 46.0843Z" fill="#FCFCFC"/>
</svg>
