<svg xmlns="http://www.w3.org/2000/svg" width="35" height="39" viewBox="0 0 35 39" fill="none">
  <path d="M28.2999 33.4001C35.8999 25.4001 36.6 11.3001 29.7 4.80013C23.2 -1.29987 10.5 -1.59987 4.59997 4.20013C-2.40003 11.2001 -0.800029 25.9001 7.69997 33.9001C14.2 40.0001 22.2999 39.8001 28.2999 33.4001Z" fill="#FF2D36"/>
</svg><svg xmlns="http://www.w3.org/2000/svg" width="419" height="83" viewBox="0 0 419 83" fill="none">
  <mask id="path-1-outside-1_6230_56" maskUnits="userSpaceOnUse" x="-1" y="-0.399902" width="420" height="84" fill="black">
    <rect fill="white" x="-1" y="-0.399902" width="420" height="84"/>
    <path d="M33.8 82.0001C22.4 82.0001 13.9 80.3001 8.3 76.9001C2.8 73.5001 0 69.5001 0 65.1001C0 63.6001 0.3 62.3001 1 61.1001C1.7 59.9001 2.4 58.9001 3.2 58.1001C4 57.3001 4.8 56.7001 5.5 56.3001C6.2 55.9001 6.7 55.7001 6.8 55.8001C9.6 58.7001 13.1 61.1001 17.4 63.1001C21.7 65.1001 26.7 66.1001 32.5 66.1001C37 66.1001 40.4 65.5001 42.7 64.2001C45 62.9001 46.2 61.1001 46.2 58.6001C46.2 57.1001 45.8 55.9001 45.1 55.0001C44.4 54.1001 43.3 53.3001 41.8 52.7001C40.4 52.1001 38.6 51.5001 36.5 51.0001C34.4 50.5001 32.1 50.0001 29.4 49.5001C26.7 48.9001 23.8 48.1001 20.6 47.3001C17.4 46.4001 14.4 45.2001 11.7 43.5001C8.9 41.8001 6.6 39.6001 4.8 36.8001C3 34.0001 2 30.4001 2 25.9001C2 22.1001 2.8 18.6001 4.3 15.5001C5.8 12.4001 8 9.8001 10.8 7.6001C13.7 5.5001 17.2 3.8001 21.2 2.5001C25.2 1.3001 29.7 0.700098 34.6 0.700098C45.1 0.700098 53 2.4001 58.2 5.7001C63.4 9.0001 66 12.9001 66 17.4001C66 18.9001 65.7 20.2001 65 21.5001C64.3 22.7001 63.5 23.8001 62.6 24.6001C61.7 25.5001 60.9 26.1001 60.1 26.5001C59.4 26.9001 58.9 27.1001 58.8 27.0001C56.1 23.9001 52.8 21.4001 48.8 19.5001C44.8 17.6001 40.5 16.6001 35.9 16.6001C31.6 16.6001 28.4 17.3001 26.1 18.6001C23.8 19.9001 22.7 21.8001 22.7 24.3001C22.7 25.7001 23.1 26.8001 23.8 27.7001C24.5 28.6001 25.6 29.4001 27.1 29.9001C28.5 30.5001 30.3 31.0001 32.3 31.5001C34.3 32.0001 36.7 32.5001 39.3 33.0001C42.1 33.6001 45.1 34.4001 48.5 35.2001C51.9 36.1001 55 37.4001 57.8 39.1001C60.7 40.9001 63.1 43.1001 65.1 45.9001C67.1 48.7001 68.1 52.3001 68.1 56.8001C68.1 64.7001 65.1 70.9001 59 75.3001C53 79.8001 44.6 82.0001 33.8 82.0001ZM114 17.5001C108.6 17.5001 104.4 18.7001 101.4 21.2001C98.4 23.7001 96.2 26.4001 94.7 29.5001C94.7 29.6001 94 29.6001 92.5 29.6001C91 29.5001 89.3 29.3001 87.5 28.7001C85.6 28.2001 84 27.2001 82.5 25.8001C81 24.4001 80.3 22.4001 80.3 19.9001C80.3 17.5001 81 15.1001 82.5 12.8001C83.9 10.5001 86.1 8.5001 89 6.7001C91.9 4.9001 95.6 3.4001 100 2.3001C104.4 1.2001 109.6 0.600098 115.6 0.600098C127.9 0.600098 137.2 3.3001 143.2 8.7001C149.3 14.1001 152.3 22.1001 152.3 32.7001V78.9001C152.3 79.4001 151.4 80.0001 149.7 80.6001C148 81.2001 146 81.5001 143.9 81.5001C140.4 81.5001 137.5 80.5001 135.1 78.5001C132.8 76.5001 131.3 73.4001 130.6 69.0001C127.8 73.0001 124.1 76.2001 119.4 78.6001C114.7 80.9001 109.4 82.1001 103.6 82.1001C95.4 82.1001 89 80.0001 84.4 75.9001C79.8 71.7001 77.5 66.3001 77.5 59.6001C77.5 50.6001 81.6 43.9001 89.7 39.7001C97.8 35.5001 110.5 33.3001 127.6 33.1001H130.2C130 22.6001 124.6 17.5001 114 17.5001ZM111 67.3001C116.6 67.3001 121.2 65.7001 124.7 62.3001C128.2 59.0001 130 54.8001 130 49.7001V45.2001L125.8 45.4001C116.9 45.6001 110.1 46.7001 105.6 48.6001C101.1 50.5001 98.8 53.6001 98.8 57.9001C98.8 60.8001 99.9 63.1001 102.1 64.8001C104.3 66.4001 107.2 67.3001 111 67.3001ZM217.4 68.6001C214.6 72.6001 211.2 75.9001 207 78.5001C202.8 81.1001 197.7 82.3001 191.7 82.3001C186.6 82.3001 182.2 81.5001 178.5 79.8001C174.8 78.2001 171.8 75.9001 169.6 72.9001C167.3 70.0001 165.6 66.5001 164.5 62.6001C163.4 58.7001 162.8 54.5001 162.8 50.0001V12.4001C162.8 8.4001 163.7 5.5001 165.6 3.9001C167.5 2.3001 169.8 1.5001 172.7 1.5001H175.1C178.1 1.5001 180.5 2.3001 182.4 3.8001C184.3 5.3001 185.3 8.2001 185.3 12.3001V46.6001C185.3 51.8001 186.5 55.9001 189.1 58.9001C191.6 61.9001 195.2 63.4001 200 63.4001C203.7 63.4001 207.1 62.5001 210 60.6001C212.9 58.7001 215.2 56.3001 216.8 53.2001V12.4001C216.8 8.4001 217.7 5.5001 219.6 3.9001C221.5 2.3001 223.9 1.5001 226.9 1.5001H229.1C232.2 1.5001 234.7 2.3001 236.5 3.8001C238.4 5.3001 239.3 8.2001 239.3 12.3001V78.3001C239.3 78.7001 238.5 79.3001 236.8 79.9001C235.1 80.5001 233.2 80.9001 230.8 80.9001C229.4 80.9001 228 80.7001 226.6 80.3001C225.2 79.9001 223.8 79.3001 222.6 78.4001C221.4 77.5001 220.3 76.2001 219.4 74.6001C218.5 73.0001 217.8 71.0001 217.4 68.6001ZM289.9 82.3001C283.8 82.3001 278.3 81.3001 273.3 79.3001C268.3 77.3001 264 74.5001 260.4 70.8001C256.8 67.2001 254 62.9001 251.9 57.9001C249.9 52.9001 248.9 47.4001 248.9 41.5001C248.9 35.5001 249.9 30.1001 251.9 25.1001C253.9 20.1001 256.8 15.8001 260.4 12.2001C264.1 8.6001 268.4 5.8001 273.4 3.8001C278.4 1.8001 283.9 0.800098 289.8 0.800098C295.8 0.800098 300.8 1.5001 305.1 3.0001C309.3 4.5001 312.7 6.3001 315.4 8.5001C318.1 10.7001 320 13.0001 321.2 15.4001C322.4 17.9001 323 20.0001 323 21.8001C323 24.0001 322.4 25.8001 321.1 27.2001C319.8 28.6001 318.4 29.7001 316.9 30.4001C315.4 31.1001 314 31.6001 312.7 31.8001C311.4 32.0001 310.7 31.9001 310.5 31.7001C309 28.0001 306.7 24.9001 303.6 22.4001C300.5 20.0001 296.2 18.7001 290.7 18.7001C287.6 18.7001 284.8 19.3001 282.2 20.4001C279.6 21.5001 277.4 23.1001 275.5 25.1001C273.6 27.1001 272.2 29.5001 271.1 32.3001C270 35.1001 269.5 38.1001 269.5 41.4001C269.5 44.7001 270 47.8001 271.1 50.6001C272.2 53.4001 273.6 55.8001 275.5 57.9001C277.4 59.9001 279.6 61.5001 282.2 62.6001C284.8 63.7001 287.7 64.3001 290.7 64.3001C296.1 64.3001 300.4 63.1001 303.6 60.6001C306.7 58.2001 309.1 55.1001 310.5 51.3001C310.6 51.1001 311.3 51.0001 312.6 51.1001C313.9 51.2001 315.3 51.6001 316.8 52.4001C318.3 53.1001 319.8 54.2001 321 55.6001C322.3 57.0001 322.9 58.9001 322.9 61.3001C322.9 63.1001 322.3 65.2001 321 67.6001C319.7 70.0001 317.7 72.3001 315 74.5001C312.3 76.7001 308.9 78.5001 304.7 80.0001C300.7 81.6001 295.7 82.3001 289.9 82.3001ZM357.4 61.0001C361.4 64.2001 366.5 65.9001 372.6 65.9001C378.6 65.9001 383.3 64.8001 386.7 62.5001C390.2 60.2001 392.8 57.5001 394.6 54.4001C394.6 54.3001 395.2 54.3001 396.4 54.6001C397.6 54.8001 398.8 55.3001 400.2 56.0001C401.5 56.7001 402.8 57.8001 403.9 59.2001C405 60.6001 405.6 62.4001 405.6 64.6001C405.6 66.6001 404.9 68.7001 403.4 70.8001C401.9 72.9001 399.8 74.8001 396.9 76.5001C394.1 78.2001 390.6 79.6001 386.4 80.7001C382.2 81.8001 377.4 82.3001 371.9 82.3001C365.5 82.3001 359.7 81.3001 354.6 79.4001C349.4 77.5001 345 74.8001 341.3 71.3001C337.6 67.8001 334.8 63.6001 332.8 58.6001C330.8 53.6001 329.8 48.1001 329.8 41.9001C329.8 35.9001 330.8 30.4001 332.8 25.4001C334.8 20.3001 337.6 16.0001 341.3 12.3001C344.9 8.6001 349.2 5.8001 354.2 3.7001C359.2 1.6001 364.6 0.600098 370.5 0.600098C376.2 0.600098 381.5 1.6001 386.2 3.5001C390.9 5.4001 395 8.1001 398.5 11.6001C402 15.1001 404.6 19.2001 406.5 23.9001C408.4 28.6001 409.3 33.9001 409.3 39.6001V41.2001C409.2 43.2001 408.8 44.8001 408.1 45.8001C407.4 46.9001 406 47.4001 403.9 47.4001H350C350.9 53.2001 353.3 57.7001 357.4 61.0001ZM388.2 34.2001C388 28.8001 386.3 24.4001 383 21.1001C379.8 17.8001 375.4 16.1001 370 16.1001C364.7 16.1001 360.2 17.8001 356.6 21.1001C353 24.5001 350.8 28.8001 350.1 34.1001H388.2V34.2001ZM417.1 9.0001C417.5 8.5001 417.7 7.9001 417.7 7.3001C417.7 6.5001 417.4 5.8001 416.9 5.2001C416.4 4.7001 415.6 4.4001 414.6 4.4001H413.2C412.2 4.4001 411.3 5.3001 411.3 6.4001V11.3001C411.3 12.4001 412.1 13.3001 413.2 13.3001H413.5V10.1001H413.7L415 12.3001C415.3 12.9001 415.9 13.3001 416.6 13.3001H418L416 9.9001C416.4 9.6001 416.8 9.4001 417.1 9.0001ZM415.5 7.3001C415.5 7.9001 415.2 8.2001 414.5 8.2001H413.7C413.6 8.2001 413.5 8.1001 413.5 8.0001V6.4001H414.5C414.9 6.4001 415.1 6.5001 415.3 6.6001C415.4 6.8001 415.5 7.0001 415.5 7.3001Z"/>
  </mask>
  <path d="M33.8 82.0001C22.4 82.0001 13.9 80.3001 8.3 76.9001C2.8 73.5001 0 69.5001 0 65.1001C0 63.6001 0.3 62.3001 1 61.1001C1.7 59.9001 2.4 58.9001 3.2 58.1001C4 57.3001 4.8 56.7001 5.5 56.3001C6.2 55.9001 6.7 55.7001 6.8 55.8001C9.6 58.7001 13.1 61.1001 17.4 63.1001C21.7 65.1001 26.7 66.1001 32.5 66.1001C37 66.1001 40.4 65.5001 42.7 64.2001C45 62.9001 46.2 61.1001 46.2 58.6001C46.2 57.1001 45.8 55.9001 45.1 55.0001C44.4 54.1001 43.3 53.3001 41.8 52.7001C40.4 52.1001 38.6 51.5001 36.5 51.0001C34.4 50.5001 32.1 50.0001 29.4 49.5001C26.7 48.9001 23.8 48.1001 20.6 47.3001C17.4 46.4001 14.4 45.2001 11.7 43.5001C8.9 41.8001 6.6 39.6001 4.8 36.8001C3 34.0001 2 30.4001 2 25.9001C2 22.1001 2.8 18.6001 4.3 15.5001C5.8 12.4001 8 9.8001 10.8 7.6001C13.7 5.5001 17.2 3.8001 21.2 2.5001C25.2 1.3001 29.7 0.700098 34.6 0.700098C45.1 0.700098 53 2.4001 58.2 5.7001C63.4 9.0001 66 12.9001 66 17.4001C66 18.9001 65.7 20.2001 65 21.5001C64.3 22.7001 63.5 23.8001 62.6 24.6001C61.7 25.5001 60.9 26.1001 60.1 26.5001C59.4 26.9001 58.9 27.1001 58.8 27.0001C56.1 23.9001 52.8 21.4001 48.8 19.5001C44.8 17.6001 40.5 16.6001 35.9 16.6001C31.6 16.6001 28.4 17.3001 26.1 18.6001C23.8 19.9001 22.7 21.8001 22.7 24.3001C22.7 25.7001 23.1 26.8001 23.8 27.7001C24.5 28.6001 25.6 29.4001 27.1 29.9001C28.5 30.5001 30.3 31.0001 32.3 31.5001C34.3 32.0001 36.7 32.5001 39.3 33.0001C42.1 33.6001 45.1 34.4001 48.5 35.2001C51.9 36.1001 55 37.4001 57.8 39.1001C60.7 40.9001 63.1 43.1001 65.1 45.9001C67.1 48.7001 68.1 52.3001 68.1 56.8001C68.1 64.7001 65.1 70.9001 59 75.3001C53 79.8001 44.6 82.0001 33.8 82.0001ZM114 17.5001C108.6 17.5001 104.4 18.7001 101.4 21.2001C98.4 23.7001 96.2 26.4001 94.7 29.5001C94.7 29.6001 94 29.6001 92.5 29.6001C91 29.5001 89.3 29.3001 87.5 28.7001C85.6 28.2001 84 27.2001 82.5 25.8001C81 24.4001 80.3 22.4001 80.3 19.9001C80.3 17.5001 81 15.1001 82.5 12.8001C83.9 10.5001 86.1 8.5001 89 6.7001C91.9 4.9001 95.6 3.4001 100 2.3001C104.4 1.2001 109.6 0.600098 115.6 0.600098C127.9 0.600098 137.2 3.3001 143.2 8.7001C149.3 14.1001 152.3 22.1001 152.3 32.7001V78.9001C152.3 79.4001 151.4 80.0001 149.7 80.6001C148 81.2001 146 81.5001 143.9 81.5001C140.4 81.5001 137.5 80.5001 135.1 78.5001C132.8 76.5001 131.3 73.4001 130.6 69.0001C127.8 73.0001 124.1 76.2001 119.4 78.6001C114.7 80.9001 109.4 82.1001 103.6 82.1001C95.4 82.1001 89 80.0001 84.4 75.9001C79.8 71.7001 77.5 66.3001 77.5 59.6001C77.5 50.6001 81.6 43.9001 89.7 39.7001C97.8 35.5001 110.5 33.3001 127.6 33.1001H130.2C130 22.6001 124.6 17.5001 114 17.5001ZM111 67.3001C116.6 67.3001 121.2 65.7001 124.7 62.3001C128.2 59.0001 130 54.8001 130 49.7001V45.2001L125.8 45.4001C116.9 45.6001 110.1 46.7001 105.6 48.6001C101.1 50.5001 98.8 53.6001 98.8 57.9001C98.8 60.8001 99.9 63.1001 102.1 64.8001C104.3 66.4001 107.2 67.3001 111 67.3001ZM217.4 68.6001C214.6 72.6001 211.2 75.9001 207 78.5001C202.8 81.1001 197.7 82.3001 191.7 82.3001C186.6 82.3001 182.2 81.5001 178.5 79.8001C174.8 78.2001 171.8 75.9001 169.6 72.9001C167.3 70.0001 165.6 66.5001 164.5 62.6001C163.4 58.7001 162.8 54.5001 162.8 50.0001V12.4001C162.8 8.4001 163.7 5.5001 165.6 3.9001C167.5 2.3001 169.8 1.5001 172.7 1.5001H175.1C178.1 1.5001 180.5 2.3001 182.4 3.8001C184.3 5.3001 185.3 8.2001 185.3 12.3001V46.6001C185.3 51.8001 186.5 55.9001 189.1 58.9001C191.6 61.9001 195.2 63.4001 200 63.4001C203.7 63.4001 207.1 62.5001 210 60.6001C212.9 58.7001 215.2 56.3001 216.8 53.2001V12.4001C216.8 8.4001 217.7 5.5001 219.6 3.9001C221.5 2.3001 223.9 1.5001 226.9 1.5001H229.1C232.2 1.5001 234.7 2.3001 236.5 3.8001C238.4 5.3001 239.3 8.2001 239.3 12.3001V78.3001C239.3 78.7001 238.5 79.3001 236.8 79.9001C235.1 80.5001 233.2 80.9001 230.8 80.9001C229.4 80.9001 228 80.7001 226.6 80.3001C225.2 79.9001 223.8 79.3001 222.6 78.4001C221.4 77.5001 220.3 76.2001 219.4 74.6001C218.5 73.0001 217.8 71.0001 217.4 68.6001ZM289.9 82.3001C283.8 82.3001 278.3 81.3001 273.3 79.3001C268.3 77.3001 264 74.5001 260.4 70.8001C256.8 67.2001 254 62.9001 251.9 57.9001C249.9 52.9001 248.9 47.4001 248.9 41.5001C248.9 35.5001 249.9 30.1001 251.9 25.1001C253.9 20.1001 256.8 15.8001 260.4 12.2001C264.1 8.6001 268.4 5.8001 273.4 3.8001C278.4 1.8001 283.9 0.800098 289.8 0.800098C295.8 0.800098 300.8 1.5001 305.1 3.0001C309.3 4.5001 312.7 6.3001 315.4 8.5001C318.1 10.7001 320 13.0001 321.2 15.4001C322.4 17.9001 323 20.0001 323 21.8001C323 24.0001 322.4 25.8001 321.1 27.2001C319.8 28.6001 318.4 29.7001 316.9 30.4001C315.4 31.1001 314 31.6001 312.7 31.8001C311.4 32.0001 310.7 31.9001 310.5 31.7001C309 28.0001 306.7 24.9001 303.6 22.4001C300.5 20.0001 296.2 18.7001 290.7 18.7001C287.6 18.7001 284.8 19.3001 282.2 20.4001C279.6 21.5001 277.4 23.1001 275.5 25.1001C273.6 27.1001 272.2 29.5001 271.1 32.3001C270 35.1001 269.5 38.1001 269.5 41.4001C269.5 44.7001 270 47.8001 271.1 50.6001C272.2 53.4001 273.6 55.8001 275.5 57.9001C277.4 59.9001 279.6 61.5001 282.2 62.6001C284.8 63.7001 287.7 64.3001 290.7 64.3001C296.1 64.3001 300.4 63.1001 303.6 60.6001C306.7 58.2001 309.1 55.1001 310.5 51.3001C310.6 51.1001 311.3 51.0001 312.6 51.1001C313.9 51.2001 315.3 51.6001 316.8 52.4001C318.3 53.1001 319.8 54.2001 321 55.6001C322.3 57.0001 322.9 58.9001 322.9 61.3001C322.9 63.1001 322.3 65.2001 321 67.6001C319.7 70.0001 317.7 72.3001 315 74.5001C312.3 76.7001 308.9 78.5001 304.7 80.0001C300.7 81.6001 295.7 82.3001 289.9 82.3001ZM357.4 61.0001C361.4 64.2001 366.5 65.9001 372.6 65.9001C378.6 65.9001 383.3 64.8001 386.7 62.5001C390.2 60.2001 392.8 57.5001 394.6 54.4001C394.6 54.3001 395.2 54.3001 396.4 54.6001C397.6 54.8001 398.8 55.3001 400.2 56.0001C401.5 56.7001 402.8 57.8001 403.9 59.2001C405 60.6001 405.6 62.4001 405.6 64.6001C405.6 66.6001 404.9 68.7001 403.4 70.8001C401.9 72.9001 399.8 74.8001 396.9 76.5001C394.1 78.2001 390.6 79.6001 386.4 80.7001C382.2 81.8001 377.4 82.3001 371.9 82.3001C365.5 82.3001 359.7 81.3001 354.6 79.4001C349.4 77.5001 345 74.8001 341.3 71.3001C337.6 67.8001 334.8 63.6001 332.8 58.6001C330.8 53.6001 329.8 48.1001 329.8 41.9001C329.8 35.9001 330.8 30.4001 332.8 25.4001C334.8 20.3001 337.6 16.0001 341.3 12.3001C344.9 8.6001 349.2 5.8001 354.2 3.7001C359.2 1.6001 364.6 0.600098 370.5 0.600098C376.2 0.600098 381.5 1.6001 386.2 3.5001C390.9 5.4001 395 8.1001 398.5 11.6001C402 15.1001 404.6 19.2001 406.5 23.9001C408.4 28.6001 409.3 33.9001 409.3 39.6001V41.2001C409.2 43.2001 408.8 44.8001 408.1 45.8001C407.4 46.9001 406 47.4001 403.9 47.4001H350C350.9 53.2001 353.3 57.7001 357.4 61.0001ZM388.2 34.2001C388 28.8001 386.3 24.4001 383 21.1001C379.8 17.8001 375.4 16.1001 370 16.1001C364.7 16.1001 360.2 17.8001 356.6 21.1001C353 24.5001 350.8 28.8001 350.1 34.1001H388.2V34.2001ZM417.1 9.0001C417.5 8.5001 417.7 7.9001 417.7 7.3001C417.7 6.5001 417.4 5.8001 416.9 5.2001C416.4 4.7001 415.6 4.4001 414.6 4.4001H413.2C412.2 4.4001 411.3 5.3001 411.3 6.4001V11.3001C411.3 12.4001 412.1 13.3001 413.2 13.3001H413.5V10.1001H413.7L415 12.3001C415.3 12.9001 415.9 13.3001 416.6 13.3001H418L416 9.9001C416.4 9.6001 416.8 9.4001 417.1 9.0001ZM415.5 7.3001C415.5 7.9001 415.2 8.2001 414.5 8.2001H413.7C413.6 8.2001 413.5 8.1001 413.5 8.0001V6.4001H414.5C414.9 6.4001 415.1 6.5001 415.3 6.6001C415.4 6.8001 415.5 7.0001 415.5 7.3001Z" fill="#232D3A"/>
  <path d="M33.8 82.0001C22.4 82.0001 13.9 80.3001 8.3 76.9001C2.8 73.5001 0 69.5001 0 65.1001C0 63.6001 0.3 62.3001 1 61.1001C1.7 59.9001 2.4 58.9001 3.2 58.1001C4 57.3001 4.8 56.7001 5.5 56.3001C6.2 55.9001 6.7 55.7001 6.8 55.8001C9.6 58.7001 13.1 61.1001 17.4 63.1001C21.7 65.1001 26.7 66.1001 32.5 66.1001C37 66.1001 40.4 65.5001 42.7 64.2001C45 62.9001 46.2 61.1001 46.2 58.6001C46.2 57.1001 45.8 55.9001 45.1 55.0001C44.4 54.1001 43.3 53.3001 41.8 52.7001C40.4 52.1001 38.6 51.5001 36.5 51.0001C34.4 50.5001 32.1 50.0001 29.4 49.5001C26.7 48.9001 23.8 48.1001 20.6 47.3001C17.4 46.4001 14.4 45.2001 11.7 43.5001C8.9 41.8001 6.6 39.6001 4.8 36.8001C3 34.0001 2 30.4001 2 25.9001C2 22.1001 2.8 18.6001 4.3 15.5001C5.8 12.4001 8 9.8001 10.8 7.6001C13.7 5.5001 17.2 3.8001 21.2 2.5001C25.2 1.3001 29.7 0.700098 34.6 0.700098C45.1 0.700098 53 2.4001 58.2 5.7001C63.4 9.0001 66 12.9001 66 17.4001C66 18.9001 65.7 20.2001 65 21.5001C64.3 22.7001 63.5 23.8001 62.6 24.6001C61.7 25.5001 60.9 26.1001 60.1 26.5001C59.4 26.9001 58.9 27.1001 58.8 27.0001C56.1 23.9001 52.8 21.4001 48.8 19.5001C44.8 17.6001 40.5 16.6001 35.9 16.6001C31.6 16.6001 28.4 17.3001 26.1 18.6001C23.8 19.9001 22.7 21.8001 22.7 24.3001C22.7 25.7001 23.1 26.8001 23.8 27.7001C24.5 28.6001 25.6 29.4001 27.1 29.9001C28.5 30.5001 30.3 31.0001 32.3 31.5001C34.3 32.0001 36.7 32.5001 39.3 33.0001C42.1 33.6001 45.1 34.4001 48.5 35.2001C51.9 36.1001 55 37.4001 57.8 39.1001C60.7 40.9001 63.1 43.1001 65.1 45.9001C67.1 48.7001 68.1 52.3001 68.1 56.8001C68.1 64.7001 65.1 70.9001 59 75.3001C53 79.8001 44.6 82.0001 33.8 82.0001ZM114 17.5001C108.6 17.5001 104.4 18.7001 101.4 21.2001C98.4 23.7001 96.2 26.4001 94.7 29.5001C94.7 29.6001 94 29.6001 92.5 29.6001C91 29.5001 89.3 29.3001 87.5 28.7001C85.6 28.2001 84 27.2001 82.5 25.8001C81 24.4001 80.3 22.4001 80.3 19.9001C80.3 17.5001 81 15.1001 82.5 12.8001C83.9 10.5001 86.1 8.5001 89 6.7001C91.9 4.9001 95.6 3.4001 100 2.3001C104.4 1.2001 109.6 0.600098 115.6 0.600098C127.9 0.600098 137.2 3.3001 143.2 8.7001C149.3 14.1001 152.3 22.1001 152.3 32.7001V78.9001C152.3 79.4001 151.4 80.0001 149.7 80.6001C148 81.2001 146 81.5001 143.9 81.5001C140.4 81.5001 137.5 80.5001 135.1 78.5001C132.8 76.5001 131.3 73.4001 130.6 69.0001C127.8 73.0001 124.1 76.2001 119.4 78.6001C114.7 80.9001 109.4 82.1001 103.6 82.1001C95.4 82.1001 89 80.0001 84.4 75.9001C79.8 71.7001 77.5 66.3001 77.5 59.6001C77.5 50.6001 81.6 43.9001 89.7 39.7001C97.8 35.5001 110.5 33.3001 127.6 33.1001H130.2C130 22.6001 124.6 17.5001 114 17.5001ZM111 67.3001C116.6 67.3001 121.2 65.7001 124.7 62.3001C128.2 59.0001 130 54.8001 130 49.7001V45.2001L125.8 45.4001C116.9 45.6001 110.1 46.7001 105.6 48.6001C101.1 50.5001 98.8 53.6001 98.8 57.9001C98.8 60.8001 99.9 63.1001 102.1 64.8001C104.3 66.4001 107.2 67.3001 111 67.3001ZM217.4 68.6001C214.6 72.6001 211.2 75.9001 207 78.5001C202.8 81.1001 197.7 82.3001 191.7 82.3001C186.6 82.3001 182.2 81.5001 178.5 79.8001C174.8 78.2001 171.8 75.9001 169.6 72.9001C167.3 70.0001 165.6 66.5001 164.5 62.6001C163.4 58.7001 162.8 54.5001 162.8 50.0001V12.4001C162.8 8.4001 163.7 5.5001 165.6 3.9001C167.5 2.3001 169.8 1.5001 172.7 1.5001H175.1C178.1 1.5001 180.5 2.3001 182.4 3.8001C184.3 5.3001 185.3 8.2001 185.3 12.3001V46.6001C185.3 51.8001 186.5 55.9001 189.1 58.9001C191.6 61.9001 195.2 63.4001 200 63.4001C203.7 63.4001 207.1 62.5001 210 60.6001C212.9 58.7001 215.2 56.3001 216.8 53.2001V12.4001C216.8 8.4001 217.7 5.5001 219.6 3.9001C221.5 2.3001 223.9 1.5001 226.9 1.5001H229.1C232.2 1.5001 234.7 2.3001 236.5 3.8001C238.4 5.3001 239.3 8.2001 239.3 12.3001V78.3001C239.3 78.7001 238.5 79.3001 236.8 79.9001C235.1 80.5001 233.2 80.9001 230.8 80.9001C229.4 80.9001 228 80.7001 226.6 80.3001C225.2 79.9001 223.8 79.3001 222.6 78.4001C221.4 77.5001 220.3 76.2001 219.4 74.6001C218.5 73.0001 217.8 71.0001 217.4 68.6001ZM289.9 82.3001C283.8 82.3001 278.3 81.3001 273.3 79.3001C268.3 77.3001 264 74.5001 260.4 70.8001C256.8 67.2001 254 62.9001 251.9 57.9001C249.9 52.9001 248.9 47.4001 248.9 41.5001C248.9 35.5001 249.9 30.1001 251.9 25.1001C253.9 20.1001 256.8 15.8001 260.4 12.2001C264.1 8.6001 268.4 5.8001 273.4 3.8001C278.4 1.8001 283.9 0.800098 289.8 0.800098C295.8 0.800098 300.8 1.5001 305.1 3.0001C309.3 4.5001 312.7 6.3001 315.4 8.5001C318.1 10.7001 320 13.0001 321.2 15.4001C322.4 17.9001 323 20.0001 323 21.8001C323 24.0001 322.4 25.8001 321.1 27.2001C319.8 28.6001 318.4 29.7001 316.9 30.4001C315.4 31.1001 314 31.6001 312.7 31.8001C311.4 32.0001 310.7 31.9001 310.5 31.7001C309 28.0001 306.7 24.9001 303.6 22.4001C300.5 20.0001 296.2 18.7001 290.7 18.7001C287.6 18.7001 284.8 19.3001 282.2 20.4001C279.6 21.5001 277.4 23.1001 275.5 25.1001C273.6 27.1001 272.2 29.5001 271.1 32.3001C270 35.1001 269.5 38.1001 269.5 41.4001C269.5 44.7001 270 47.8001 271.1 50.6001C272.2 53.4001 273.6 55.8001 275.5 57.9001C277.4 59.9001 279.6 61.5001 282.2 62.6001C284.8 63.7001 287.7 64.3001 290.7 64.3001C296.1 64.3001 300.4 63.1001 303.6 60.6001C306.7 58.2001 309.1 55.1001 310.5 51.3001C310.6 51.1001 311.3 51.0001 312.6 51.1001C313.9 51.2001 315.3 51.6001 316.8 52.4001C318.3 53.1001 319.8 54.2001 321 55.6001C322.3 57.0001 322.9 58.9001 322.9 61.3001C322.9 63.1001 322.3 65.2001 321 67.6001C319.7 70.0001 317.7 72.3001 315 74.5001C312.3 76.7001 308.9 78.5001 304.7 80.0001C300.7 81.6001 295.7 82.3001 289.9 82.3001ZM357.4 61.0001C361.4 64.2001 366.5 65.9001 372.6 65.9001C378.6 65.9001 383.3 64.8001 386.7 62.5001C390.2 60.2001 392.8 57.5001 394.6 54.4001C394.6 54.3001 395.2 54.3001 396.4 54.6001C397.6 54.8001 398.8 55.3001 400.2 56.0001C401.5 56.7001 402.8 57.8001 403.9 59.2001C405 60.6001 405.6 62.4001 405.6 64.6001C405.6 66.6001 404.9 68.7001 403.4 70.8001C401.9 72.9001 399.8 74.8001 396.9 76.5001C394.1 78.2001 390.6 79.6001 386.4 80.7001C382.2 81.8001 377.4 82.3001 371.9 82.3001C365.5 82.3001 359.7 81.3001 354.6 79.4001C349.4 77.5001 345 74.8001 341.3 71.3001C337.6 67.8001 334.8 63.6001 332.8 58.6001C330.8 53.6001 329.8 48.1001 329.8 41.9001C329.8 35.9001 330.8 30.4001 332.8 25.4001C334.8 20.3001 337.6 16.0001 341.3 12.3001C344.9 8.6001 349.2 5.8001 354.2 3.7001C359.2 1.6001 364.6 0.600098 370.5 0.600098C376.2 0.600098 381.5 1.6001 386.2 3.5001C390.9 5.4001 395 8.1001 398.5 11.6001C402 15.1001 404.6 19.2001 406.5 23.9001C408.4 28.6001 409.3 33.9001 409.3 39.6001V41.2001C409.2 43.2001 408.8 44.8001 408.1 45.8001C407.4 46.9001 406 47.4001 403.9 47.4001H350C350.9 53.2001 353.3 57.7001 357.4 61.0001ZM388.2 34.2001C388 28.8001 386.3 24.4001 383 21.1001C379.8 17.8001 375.4 16.1001 370 16.1001C364.7 16.1001 360.2 17.8001 356.6 21.1001C353 24.5001 350.8 28.8001 350.1 34.1001H388.2V34.2001ZM417.1 9.0001C417.5 8.5001 417.7 7.9001 417.7 7.3001C417.7 6.5001 417.4 5.8001 416.9 5.2001C416.4 4.7001 415.6 4.4001 414.6 4.4001H413.2C412.2 4.4001 411.3 5.3001 411.3 6.4001V11.3001C411.3 12.4001 412.1 13.3001 413.2 13.3001H413.5V10.1001H413.7L415 12.3001C415.3 12.9001 415.9 13.3001 416.6 13.3001H418L416 9.9001C416.4 9.6001 416.8 9.4001 417.1 9.0001ZM415.5 7.3001C415.5 7.9001 415.2 8.2001 414.5 8.2001H413.7C413.6 8.2001 413.5 8.1001 413.5 8.0001V6.4001H414.5C414.9 6.4001 415.1 6.5001 415.3 6.6001C415.4 6.8001 415.5 7.0001 415.5 7.3001Z" stroke="white" mask="url(#path-1-outside-1_6230_56)"/>
</svg>
